PathFileType	3	(X/Y/Z)	running_2__view2_aligned.trc
DataRate	CameraRate	NumFrames	NumMarkers	Units	OrigDataRate	OrigDataStartFrame	OrigNumFrames
100.0	100.0	16	19	mm	100.0	1806	6434
Frame#	Time	pelvis			neck			head			hip_left			hip_right			knee_left			knee_right			ankle_left			ankle_right			heel_left			heel_right			toe_left			toe_right			shoulder_left			shoulder_right			elbow_left			elbow_right			wrist_left			wrist_right			
		X1	Y1	Z1	X2	Y2	Z2	X3	Y3	Z3	X4	Y4	Z4	X5	Y5	Z5	X6	Y6	Z6	X7	Y7	Z7	X8	Y8	Z8	X9	Y9	Z9	X10	Y10	Z10	X11	Y11	Z11	X12	Y12	Z12	X13	Y13	Z13	X14	Y14	Z14	X15	Y15	Z15	X16	Y16	Z16	X17	Y17	Z17	X18	Y18	Z18	X19	Y19	Z19	
1806	18.05000	35.039577	935.395650	245.999991	10.855635	1485.637378	351.748201	-3.077732	1561.369870	504.697849	108.929630	937.850573	246.812899	-38.850237	932.940704	245.187084	116.428719	531.107468	369.707821	-105.480963	525.064572	314.229515	103.360032	126.643038	259.832140	-122.428127	253.877163	32.851609	98.640360	79.428840	220.564930	-115.651405	244.631353	-17.955384	97.481450	60.486532	446.069675	-153.865292	102.410687	97.431411	174.090425	1458.563928	290.689703	-154.517250	1435.994870	308.106811	284.825590	1240.242451	147.820437	-224.485026	1185.178134	206.115230	293.584907	1075.433020	312.060384	-111.484417	1149.690402	406.389369
1807	18.06000	34.149025	936.484745	246.319160	9.675000	1486.943115	352.221662	-4.903440	1562.505479	504.883509	108.051913	938.976966	247.192045	-39.753623	933.992501	245.446275	115.437448	531.382748	363.802947	-107.175801	527.121265	318.654929	102.537179	125.153647	254.405609	-125.033789	254.715494	43.076643	97.726162	77.755628	215.061933	-118.427317	245.143843	-7.217744	96.969024	58.693205	441.135174	-156.095950	104.528768	108.299962	173.463958	1459.956037	293.469049	-155.206431	1437.964620	306.981424	285.614661	1241.362749	153.130814	-225.437702	1189.419028	201.520272	287.242668	1078.656862	316.020211	-116.639111	1150.944282	401.258688
1808	18.07000	33.258474	937.573840	246.638329	8.494364	1488.248853	352.695123	-6.729147	1563.641088	505.069169	107.174196	940.103359	247.571191	-40.657009	935.044297	245.705467	114.446176	531.658029	357.898073	-108.870638	529.177957	323.080343	101.714325	123.664257	248.979078	-127.639452	255.553825	53.301677	96.811965	76.082415	209.558936	-121.203230	245.656334	3.519895	96.456598	56.899877	436.200673	-158.326607	106.646849	119.168513	172.837491	1461.348145	296.248396	-155.895612	1439.934371	305.856036	286.403733	1242.483046	158.441191	-226.390378	1193.659922	196.925315	280.900429	1081.880705	319.980038	-121.793806	1152.198162	396.128007
1809	18.08000	30.680880	937.361773	246.751713	5.762607	1488.108249	352.796617	-10.022904	1563.622153	504.915118	104.522808	939.797955	247.446792	-43.160857	934.925573	246.056631	112.792320	529.820624	351.430200	-110.344608	530.299165	330.920218	99.259687	127.053997	236.285246	-130.937022	254.005091	67.297195	94.000656	80.964031	196.553237	-125.067248	243.295138	17.999823	94.826303	56.970850	418.064951	-160.050106	107.356402	135.512485	170.794408	1461.274694	298.274014	-158.329124	1439.929211	304.515474	285.014753	1241.105326	163.463382	-228.589496	1195.102509	192.060916	273.066115	1082.813532	326.280517	-126.997962	1148.609733	391.374108
1810	18.09000	28.103285	937.149707	246.865097	3.030849	1487.967645	352.898112	-13.316660	1563.603218	504.761066	101.871419	939.492552	247.322393	-45.664705	934.806848	246.407795	111.138464	527.983219	344.962328	-111.818578	531.420373	338.760092	96.805050	130.443737	223.591414	-134.234592	252.456357	81.292712	91.189346	85.845647	183.547539	-128.931267	240.933942	32.479751	93.196008	57.041823	399.929230	-161.773605	108.065955	151.856457	168.751324	1461.201244	300.299632	-160.762636	1439.924051	303.174912	283.625774	1239.727606	168.485572	-230.788613	1196.545097	187.196517	265.231802	1083.746359	332.580995	-132.202118	1145.021304	386.620209
1811	18.10000	25.525690	936.937641	246.978482	0.299092	1487.827041	352.999607	-16.610417	1563.584283	504.607015	99.220030	939.187148	247.197995	-48.168553	934.688124	246.758959	109.484609	526.145814	338.494455	-113.292548	532.541581	346.599966	94.350412	133.833477	210.897582	-137.532163	250.907622	95.288230	88.378037	90.727262	170.541840	-132.795285	238.572745	46.959679	91.565713	57.112796	381.793508	-163.497103	108.775507	168.200428	166.708241	1461.127793	302.325250	-163.196148	1439.918891	301.834350	282.236794	1238.349887	173.507762	-232.987731	1197.987684	182.332118	257.397489	1084.679186	338.881474	-137.406274	1141.432876	381.866310
1812	18.11000	22.948096	936.725574	247.091866	-2.432666	1487.686436	353.101102	-19.904173	1563.565348	504.452963	96.568641	938.881745	247.073596	-50.672400	934.569399	247.110124	107.830753	524.308409	332.026582	-114.766518	533.662790	354.439841	91.895775	137.223217	198.203750	-140.829733	249.358888	109.283748	85.566728	95.608878	157.536142	-136.659303	236.211549	61.439607	89.935418	57.183769	363.657787	-165.220602	109.485060	184.544400	164.665157	1461.054342	304.350868	-165.629659	1439.913730	300.493788	280.847814	1236.972167	178.529953	-235.186848	1199.430271	177.467719	249.563176	1085.612013	345.181953	-142.610430	1137.844447	377.112411
1813	18.12000	20.370501	936.513508	247.205250	-5.164423	1487.545832	353.202596	-23.197930	1563.546413	504.298912	93.917253	938.576341	246.949197	-53.176248	934.450674	247.461288	106.176897	522.471004	325.558709	-116.240488	534.783998	362.279715	89.441137	140.612957	185.509918	-144.127304	247.810154	123.279266	82.755418	100.490494	144.530443	-140.523322	233.850353	75.919535	88.305122	57.254742	345.522065	-166.944101	110.194613	200.888372	162.622074	1460.980891	306.376486	-168.063171	1439.908570	299.153225	279.458835	1235.594447	183.552143	-237.385965	1200.872858	172.603320	241.728862	1086.544839	351.482431	-147.814586	1134.256018	372.358512
1814	18.13000	17.792907	936.301441	247.318634	-7.896181	1487.405228	353.304091	-26.491687	1563.527478	504.144860	91.265864	938.270938	246.824798	-55.680096	934.331950	247.812452	104.523042	520.633599	319.090836	-117.714459	535.905206	370.119590	86.986499	144.002696	172.816085	-147.424874	246.261420	137.274783	79.944109	105.372110	131.524745	-144.387340	231.489157	90.399463	86.674827	57.325715	327.386344	-168.667599	110.904166	217.232344	160.578990	1460.907440	308.402104	-170.496683	1439.903410	297.812663	278.069855	1234.216728	188.574334	-239.585083	1202.315445	167.738921	233.894549	1087.477666	357.782910	-153.018742	1130.667589	367.604613
1815	18.14000	15.215312	936.089375	247.432018	-10.627939	1487.264624	353.405586	-29.785443	1563.508542	503.990809	88.614475	937.965535	246.700400	-58.183944	934.213225	248.163616	102.869186	518.796194	312.622963	-119.188429	537.026414	377.959464	84.531862	147.392436	160.122253	-150.722444	244.712686	151.270301	77.132800	110.253725	118.519046	-148.251359	229.127960	104.879391	85.044532	57.396688	309.250623	-170.391098	111.613719	233.576316	158.535907	1460.833989	310.427722	-172.930195	1439.898250	296.472101	276.680876	1232.839008	193.596524	-241.784200	1203.758033	162.874522	226.060236	1088.410493	364.083388	-158.222898	1127.079161	362.850714
1816	18.15000	12.637718	935.877309	247.545402	-13.359696	1487.124020	353.507081	-33.079200	1563.489607	503.836757	85.963086	937.660131	246.576001	-60.687792	934.094501	248.514781	101.215330	516.958789	306.155090	-120.662399	538.147622	385.799338	82.077224	150.782176	147.428421	-154.020015	243.163952	165.265819	74.321490	115.135341	105.513348	-152.115377	226.766764	119.359319	83.414237	57.467661	291.114901	-172.114596	112.323272	249.920287	156.492823	1460.760539	312.453340	-175.363707	1439.893090	295.131539	275.291896	1231.461288	198.618714	-243.983317	1205.200620	158.010123	218.225922	1089.343320	370.383867	-163.427054	1123.490732	358.096815
1817	18.16000	10.060123	935.665242	247.658786	-16.091454	1486.983416	353.608576	-36.372957	1563.470672	503.682706	83.311698	937.354728	246.451602	-63.191639	933.975776	248.865945	99.561474	515.121384	299.687217	-122.136369	539.268830	393.639213	79.622587	154.171916	134.734589	-157.317585	241.615218	179.261337	71.510181	120.016957	92.507649	-155.979395	224.405568	133.839247	81.783942	57.538634	272.979180	-173.838095	113.032825	266.264259	154.449740	1460.687088	314.478958	-177.797219	1439.887929	293.790976	273.902916	1230.083568	203.640905	-246.182435	1206.643207	153.145725	210.391609	1090.276147	376.684346	-168.631210	1119.902303	353.342916
1818	18.17000	7.482529	935.453176	247.772171	-18.823211	1486.842812	353.710070	-39.666713	1563.451737	503.528654	80.660309	937.049324	246.327203	-65.695487	933.857051	249.217109	97.907619	513.283979	293.219344	-123.610339	540.390038	401.479087	77.167949	157.561656	122.040757	-160.615155	240.066484	193.256854	68.698872	124.898572	79.501951	-159.843414	222.044372	148.319175	80.153647	57.609607	254.843458	-175.561594	113.742378	282.608231	152.406656	1460.613637	316.504576	-180.230730	1439.882769	292.450414	272.513937	1228.705849	208.663095	-248.381552	1208.085794	148.281326	202.557296	1091.208974	382.984824	-173.835366	1116.313874	348.589018
1819	18.18000	2.569441	934.760759	247.347400	-23.499429	1485.844356	353.231453	-44.527824	1562.740696	502.898548	75.762918	936.276348	245.758476	-70.624249	933.245193	248.936298	94.827064	511.976119	290.183035	-124.893698	539.810553	405.992185	74.294362	162.310535	108.726631	-160.651292	235.385358	204.347067	65.682386	131.425448	65.293234	-160.220934	215.947919	159.924605	78.023454	57.001074	236.280755	-173.646014	112.754287	298.168375	147.981873	1459.296993	316.636755	-184.918186	1439.028472	291.457858	267.711884	1226.086011	210.289551	-253.960340	1207.993898	145.401430	196.016043	1089.719240	384.947195	-180.815571	1111.596213	346.247964
1820	18.19000	-2.343647	934.068343	246.922629	-28.175647	1484.845901	352.752836	-49.388935	1562.029654	502.268441	70.865527	935.503371	245.189749	-75.553010	932.633334	248.655487	91.746509	510.668260	287.146725	-126.177058	539.231068	410.505283	71.420775	167.059415	95.412505	-160.687429	230.704232	215.437280	62.665899	137.952324	51.084517	-160.598455	209.851467	171.530034	75.893261	56.392540	217.718051	-171.730433	111.766196	313.728519	143.557089	1457.980348	316.768934	-189.605641	1438.174175	290.465302	262.909831	1223.466174	211.916006	-259.539127	1207.902003	142.521533	189.474790	1088.229505	386.909566	-187.795777	1106.878552	343.906910
1821	18.20000	-7.256735	933.375926	246.497859	-32.851864	1483.847446	352.274219	-54.250046	1561.318612	501.638335	65.968136	934.730394	244.621021	-80.481772	932.021475	248.374676	88.665954	509.360400	284.110415	-127.460418	538.651583	415.018380	68.547188	171.808294	82.098379	-160.723565	226.023107	226.527493	59.649413	144.479200	36.875800	-160.975975	203.755014	183.135464	73.763068	55.784007	199.155347	-169.814853	110.778106	329.288663	139.132305	1456.663704	316.901113	-194.293097	1437.319878	289.472746	258.107777	1220.846337	213.542462	-265.117914	1207.810107	139.641637	182.933537	1086.739771	388.871936	-194.775982	1102.160891	341.565856
